<svg xmlns="http://www.w3.org/2000/svg" xmlns:xlink="http://www.w3.org/1999/xlink" id="Layer_1" x="0px" y="0px" viewBox="0 0 850.39 425.2" style="enable-background:new 0 0 850.39 425.2;" xml:space="preserve">
<style type="text/css">
	.st0{fill:#010101;}
</style>
<g>
	<path class="st0" d="M844.09,311.49c-4.39,39.58-17.24,76.65-36.67,109.29c-24.04-41.15-54.58-78.04-90.17-109.29   c-48.4-42.62-106.16-74.77-169.82-92.99c-38.86-11.15-79.88-17.1-122.27-17.1s-83.41,5.95-122.23,17.1   c-63.67,18.22-121.47,50.41-169.87,92.99c-35.59,31.25-66.08,68.14-90.13,109.29h-0.04c-19.39-32.64-32.24-69.67-36.67-109.2   c0-0.04,0-0.04,0.05-0.09c83.81-103.87,205.46-175.96,344.03-195.21c24.45-3.45,49.43-5.19,74.86-5.19s50.46,1.75,74.9,5.19v0.04   C638.63,135.58,760.28,207.62,844.09,311.49z"></path>
	<rect x="4.51" y="5.56" class="st0" width="841.37" height="101.72"></rect>
</g>
</svg>